<?xml version="1.0" encoding="utf-8"?>
<!-- Generator: Adobe Illustrator 23.0.3, SVG Export Plug-In . SVG Version: 6.00 Build 0)  -->
<svg version="1.1" id="Layer_1" xmlns="http://www.w3.org/2000/svg" xmlns:xlink="http://www.w3.org/1999/xlink" x="0px" y="0px"
	 viewBox="0 0 595.28 595.28" style="enable-background:new 0 0 595.28 595.28;" xml:space="preserve">
<style type="text/css">
	.st0{fill:#27AAE1;}
	.st1{fill:#F26D79;}
	.st2{fill:#FBB040;}
	.st3{fill:#46A480;}
</style>
<g>
	<path class="st2" d="M460.18,177.32c5.08-5.05,27.8-30.6,36.55-40.3c1.93-2.14,6.81-3.15,9.96,1.05
		c13.76,18.35,23.15,35.39,31.91,56.95c1.06,2.62-1.27,4.38-3.93,2.5c-15.41-10.87-41.48-22.8-71.06-13.93
		C459.01,184.97,457.09,180.39,460.18,177.32z M191.4,435.1c6.77-8.39,15.79-2.09,20.62,3.4c4.78,5.43,5.08,0.87,5.6-0.67
		c2.57-7.61,4.83-13.43,5.23-14.26c4.7-9.77,12.89-3.87,14.67-2.62c33.47,23.58,42.58,65.3,44.83,91.91
		c0.09,1.13,1.28,3.15,3.38,2.89c7.62-0.95,15.08-0.84,22.79-0.99c0.94-0.02,3.16-0.84,4.21-2.68c4.95-8.66,11.3-19.57,16.14-32.98
		c1.03-2.87-0.42-10.27-6.57-5.66c-4.21,3.15-9.68,1.91-13.37-5.57c-1.13-2.3-9.48-20.31-11.4-34.68c-0.52-3.93-2.88-1.31-2.88-1.31
		l-15.29,11.97c-4.19,2.8-16.25,2.8-15.73-12.93c0.13-3.82,0.1-12.99,2.82-23.92c0.23-0.92,0.41-2.9-2.47-1.33
		c-3.97,2.17-7.45,3.55-10.83,5.14c-1.44,0.68-8.75,2.28-12.4-2.6c-2.82-3.76-3.42-8.72-0.83-12.65
		c7.13-10.81,25.15-31.59,38.74-38.38c3.49-1.75,3.24-4.44,2.43-6.12c-1.52-3.17-1.89-5.5-3.22-8.82c-1.57-3.93-4.98-0.52-4.98-0.52
		l-8.34,7.31c-1.93,1.6-5.81,3.96-12,0.99c-3.98-1.91-5.81-6.61-5.02-10.95c1.04-5.65,11.54-53.96,19.86-73.36
		c1.57-3.67-2.1-3.83-3.41-3.41c-8.36,2.71-38.58,14.42-38.92,14.55c-1.17,0.43-7.21,2.23-11.98-3.57
		c-2.94-3.57-2.79-8.78-0.04-12.5c0.46-0.62,11.37-15.39,25.39-30.83c30.16-33.21,43.95-35.27,48.49-35.95
		c2.41-0.36,16.46-0.31,25.3,0.19c4.18,0.23,2.88-2.11,2.3-3.29c-5.95-12.04-7.02-21.6-7.14-22.83c-0.26-2.76,0.58-5.48,2.29-7.59
		c-1.38-1.56-2.28-3.52-2.55-5.62l-6.16-48.47c-0.52-4.1,1.43-8.12,4.95-10.28c5.51-3.38,9.62-0.9,11.41,0.33
		c4.81,3.32,47.3,32.85,57.33,45.72c1.39,1.78,3.46,4.45,5.74,9.93c1.8,4.33,2.76,1.23,3.38,0.13c3.39-6.03,7.26-11.33,11.58-15.87
		c17.1-17.96,50.69-23.52,76.21-28.16c5.77-1.05,4.42-4.51,2.85-5.97c-46.39-43.04-108.5-69.36-176.77-69.36
		c-143.59,0-260,116.41-260,260c0,100.98,57.58,188.5,141.68,231.56c2.48,1.27,6.56,3.13,4.56-5.28
		C171.69,467.75,190.22,436.57,191.4,435.1z M513.71,237.83c-1.12-0.1-2.91-1.63-4.92-2.78c-1.34-0.77-3.14-1.4-4.82,0.75
		c-2.12,2.71-6.89,5.61-8.61,5.61c-1.21,0-8.08-3.29-12.04-5.22c-1.65-0.81-3.58,0.01-4.57,1.55c-2.54,3.98-6.75,10.68-5.35,12.08
		c11.41,11.33,21.59,27.6,22.01,49.75c0.92,48.06-22.12,76.5-23.1,77.69c-2.03,2.46-7.04,5.09-11.96,3.06
		c-4.21-1.74-5.57-4.26-5.83-10.03c-0.82-18.01-4.16-34.32-8.24-44.51c-2.92-7.28-5.83-6.07-5.39,4.79
		c0.94,23.06,9.17,72.23-13.09,180.46c-1.68,8.18,3.12,5.12,5.37,3.74c74.65-45.69,124.46-127.98,124.46-221.91
		c0-15.21-2.48-28.54-4.3-43.13c-1.05-8.39-7.74-8.97-7.74-8.97L513.71,237.83z"/>
	<path class="st3" d="M554.02,231c0,0-34.08-46.24-73.1-40.41c-24.21,3.62-49.28,15.91-64.83,24.72
		c14-25.92,47.85-56.04,47.85-56.04l-19.21-8.78l30.82-5.9l27.32-29.31c0,0-75.51,2.65-99.93,28.29
		c-11.24,11.8-17.47,28.32-20.93,42.73c-4.93-15.18-10.99-31.76-15.63-37.7c-9.34-11.98-55.02-43.54-55.02-43.54l6.16,48.47
		l28.94,21.99l-28.65-8.44c0,0,1.13,11.91,9.63,25.52c2.78,4.45,8.44,10.15,14.8,15.8c-20.53-3.14-42.79-5.66-53.79-4.02
		c-23.42,3.5-66.99,62.63-66.99,62.63s34.16-12.43,42.8-15.23l23.19-25.25l-1.4,20.91l24.79-20.31l8.12,22.36
		c-21.33,6.48-38.83,13.52-42.06,19.84c-9.18,17.98-19.06,71.64-19.06,71.64l22.7-18.88l0.41,1.55c0,0,8.9,23.58,13.75,30.51
		c2.57,3.68,9.24,8.89,14.92,12.97c-10.6-1.03-21.84-1.68-27.4-0.55c-12.23,2.48-33.54,34.78-33.54,34.78s31.76-15.03,36.23-16.74
		c0,0,19.95-1.33,37.59-1.67c-18.62,5.48-40.82,13.05-43.29,18.58c-4.34,9.71-8.07,38.22-8.07,38.22l21.63-19.98l-1.5-9.67
		l7.22,1.63l18.67-10.94c-3.9,7.56-9.19,19.22-9.38,27.12c-0.32,12.56,10.63,35.46,10.63,35.46c2.88-22.01,13.74-45.53,22.41-61.5
		c19.83,50.26-11.04,104.31-23.72,123.31c-14.3-0.03-29.2,0.75-44.53,2.57c-0.1-19.65-4.02-72.11-41.06-98.21
		c0,0-8.38,12.16-10.42,33.57c-5.43-8.29-12.31-15.89-21.03-22.04c0,0-27.25,39.49,4.57,101.54c-16.05,5.2-32.34,11.73-48.73,19.83
		h327.94c0,0-27.79-14.71-72.55-25.65c5.41-20.58,41.27-165.65,6.42-270.8c8.28,5.71,17.45,13.24,23.86,21.93l15.64-6.43
		l-7.61,27.02c0,0,17,27.22,14.66,62.08c0,0,21.55-26.08,20.7-70.81c-0.65-34.18-28.75-52.3-41.97-58.94l27.31-8.18l-6.36-18.8
		l31.45,17.09l-5.56-21.38l24.88,17.85L554.02,231z M327.11,319.87c-2.01,12.64-0.06,25.57,3.12,36.73
		c-6.53-11.52-13.66-23.67-16.25-26.67c-2.63-3.04-12.54-10.7-21.76-17.57l8.58-7.14l-1.9-18.48l13.51,3.81l33.64-17.44
		C338.58,287.01,329.28,306.29,327.11,319.87z M252.34,467.31c3.01,6.02,3.61,12.04,3.61,12.04l-19.86,23.17
		c-1.81-5.42-1.81-12.64-1.81-12.64L252.34,467.31z M197.24,491.46l17.47-21.84c2.91,5.82,3.49,11.65,3.49,11.65l-19.22,22.42
		C197.24,498.45,197.24,491.46,197.24,491.46z M362.31,507.19c12.76-52.87,0.56-90.81-8.19-109.19
		c10.04,4.11,23.26,12.7,35.08,30.62C382.99,452.88,374.26,479.12,362.31,507.19z M393.61,409.73c-0.9-3.59-2.17-7.4-3.95-11.37
		c-3.95-8.84-10.8-13.79-17.49-16.56l10.47-13.08l16.44,9.86C397.71,388.51,395.91,398.91,393.61,409.73z M401.47,356.77
		c-5.63-2.57-11.93-4.01-18.36-2.71c-4.87,0.99-9.77,2.66-14.41,4.63c12.85-9.62,28.46-18.36,28.46-18.36l5.41-3.41
		C402.39,343.27,402.03,349.9,401.47,356.77z M362.65,328.79c2.52-5.18,4.25-8.18,4.25-8.18l-16.67-17.78l20.88,5.51
		c6.36-8.59,16.93-25.02,26.23-39.83c3.01,15.41,5.37,34.97,5.37,58.39C390.86,325.25,373.24,323.98,362.65,328.79z"/>
</g>
</svg>
